<svg width="32" height="32" viewBox="0 0 32 32" xmlns="http://www.w3.org/2000/svg">
  <path d="M16 4C9.372 4 4 9.372 4 16s5.372 12 12 12 12-5.372 12-12S22.628 4 16 4zm0 1.6c5.742 0 10.4 4.658 10.4 10.4 0 5.742-4.658 10.4-10.4 10.4-5.742 0-10.4-4.658-10.4-10.4 0-5.742 4.658-10.4 10.4-10.4z" fill="#646cff"/>
  <path d="M16 8c-4.418 0-8 3.582-8 8s3.582 8 8 8 8-3.582 8-8-3.582-8-8-8zm0 1.6c3.534 0 6.4 2.866 6.4 6.4s-2.866 6.4-6.4 6.4-6.4-2.866-6.4-6.4 2.866-6.4 6.4-6.4z" fill="#646cff"/>
  <path d="M16 12.8c-1.768 0-3.2 1.432-3.2 3.2s1.432 3.2 3.2 3.2 3.2-1.432 3.2-3.2-1.432-3.2-3.2-3.2z" fill="#646cff"/>
  <path d="M16 8l-4 8h8l-4-8z" fill="#646cff"/>
</svg>